<svg class="diagram-root" style="background: #f5f6f6" xmlns="http://www.w3.org/2000/svg" xmlns:xlink="http://www.w3.org/1999/xlink"><style>.diagram-root { font-family: "Helvetica Neue", sans-serif; font-size: 12px; } .t { overflow: visible; } .t-bg { y: 40; fill: #fff;   } .th { fill: #005aa0;   } .tht { fill: #fff; font-size: 14px;  } .tf { fill: #323c46; overflow: visible; } .tf.pk { fill: #005aa0; font-weight: bold; } .tf.fk { font-weight: bold; } .ty { fill: #adb1b5; font-weight: normal; text-anchor: end; } .r { fill: transparent; stroke: #c3c3c3; stroke-width: 1; } .l { stroke: 1; } .i { fill: #c2c7ce; stroke: #c2c7ce; } .i.ix { fill: #afb3b6; stroke: #000; } .fa { fill: transparent; overflow: visible; } .fa .bg.hover { fill: #f7f7f7; } .c { cy: 12; r: 4; stroke: #d2d2dc; fill: #d2d2dc; } .hr { fill: transparent; stroke: #323c46; stroke-opacity: 0.035; stroke-width: 13; } .dc { stroke: #fa5a3c; fill: #fa5a3c; } .x { stroke: white; stroke-width: 1; } .hl .th { fill: #1b9bff; } .hl .tht {  } .fhl .bg { fill: #e7f4ff; } .fhls .bg {  } .r.hl { stroke: #1b9bff; } .dim { opacity: 0.25; }</style><g class="drawing-wrapper" transform="translate(-65, -146) scale(1,1)"><g class="rs"><path d="M 929.05 313 m -1, 0 a 1,1 0 1,0 2,0 a 1,1 0 1,0 -2,0 M 929.05 313 m -0.5, 0 a 0.5,0.5 0 1,0 1,0 a 0.5,0.5 0 1,0 -1,0  M929.05 313 L929.05 313 941.05 313 M 929.05 319 m -1, 0 a 1,1 0 1,0 2,0 a 1,1 0 1,0 -2,0 M 929.05 319 m -0.5, 0 a 0.5,0.5 0 1,0 1,0 a 0.5,0.5 0 1,0 -1,0  M929.05 319 L929.05 319 936.05 313 929.05 307 M 929.05 307 m -1, 0 a 1,1 0 1,0 2,0 a 1,1 0 1,0 -2,0 M 929.05 307 m -0.5, 0 a 0.5,0.5 0 1,0 1,0 a 0.5,0.5 0 1,0 -1,0  M941.05 313 Q 957.29 313, 973.53 392.5 T 1006 472 M 1018 472 m -1, 0 a 1,1 0 1,0 2,0 a 1,1 0 1,0 -2,0 M 1018 472 m -0.5, 0 a 0.5,0.5 0 1,0 1,0 a 0.5,0.5 0 1,0 -1,0  M1018 472 L1018 472 1006 472 M1012 478 L1012 478 1012 466" id="h150312143" class="r"></path><path d="M 237.51 233 m -1, 0 a 1,1 0 1,0 2,0 a 1,1 0 1,0 -2,0 M 237.51 233 m -0.5, 0 a 0.5,0.5 0 1,0 1,0 a 0.5,0.5 0 1,0 -1,0  M237.51 233 L237.51 233 249.51 233 M 237.51 239 m -1, 0 a 1,1 0 1,0 2,0 a 1,1 0 1,0 -2,0 M 237.51 239 m -0.5, 0 a 0.5,0.5 0 1,0 1,0 a 0.5,0.5 0 1,0 -1,0  M237.51 239 L237.51 239 244.51 233 237.51 227 M 237.51 227 m -1, 0 a 1,1 0 1,0 2,0 a 1,1 0 1,0 -2,0 M 237.51 227 m -0.5, 0 a 0.5,0.5 0 1,0 1,0 a 0.5,0.5 0 1,0 -1,0  M249.51 233 Q 265.39 233, 281.26 235.5 T 313 238 M 325 238 m -1, 0 a 1,1 0 1,0 2,0 a 1,1 0 1,0 -2,0 M 325 238 m -0.5, 0 a 0.5,0.5 0 1,0 1,0 a 0.5,0.5 0 1,0 -1,0  M325 238 L325 238 313 238 M319 244 L319 244 319 232" id="h1189701116" class="r"></path><path d="M 237.51 258 m -1, 0 a 1,1 0 1,0 2,0 a 1,1 0 1,0 -2,0 M 237.51 258 m -0.5, 0 a 0.5,0.5 0 1,0 1,0 a 0.5,0.5 0 1,0 -1,0  M237.51 258 L237.51 258 249.51 258 M 237.51 264 m -1, 0 a 1,1 0 1,0 2,0 a 1,1 0 1,0 -2,0 M 237.51 264 m -0.5, 0 a 0.5,0.5 0 1,0 1,0 a 0.5,0.5 0 1,0 -1,0  M237.51 264 L237.51 264 244.51 258 237.51 252 M 237.51 252 m -1, 0 a 1,1 0 1,0 2,0 a 1,1 0 1,0 -2,0 M 237.51 252 m -0.5, 0 a 0.5,0.5 0 1,0 1,0 a 0.5,0.5 0 1,0 -1,0  M249.51 258 Q 265.39 258, 281.26 248 T 313 238 M 325 238 m -1, 0 a 1,1 0 1,0 2,0 a 1,1 0 1,0 -2,0 M 325 238 m -0.5, 0 a 0.5,0.5 0 1,0 1,0 a 0.5,0.5 0 1,0 -1,0  M325 238 L325 238 313 238 M319 244 L319 244 319 232" id="h3478365241" class="r"></path><path d="M 528 239 m -1, 0 a 1,1 0 1,0 2,0 a 1,1 0 1,0 -2,0 M 528 239 m -0.5, 0 a 0.5,0.5 0 1,0 1,0 a 0.5,0.5 0 1,0 -1,0  M528 239 L528 239 516 239 M 528 245 m -1, 0 a 1,1 0 1,0 2,0 a 1,1 0 1,0 -2,0 M 528 245 m -0.5, 0 a 0.5,0.5 0 1,0 1,0 a 0.5,0.5 0 1,0 -1,0  M528 245 L528 245 521 239 528 233 M 528 233 m -1, 0 a 1,1 0 1,0 2,0 a 1,1 0 1,0 -2,0 M 528 233 m -0.5, 0 a 0.5,0.5 0 1,0 1,0 a 0.5,0.5 0 1,0 -1,0  M516 239 Q 500.26 239, 484.51 238.5 T 453.01 238 M 441.01 238 m -1, 0 a 1,1 0 1,0 2,0 a 1,1 0 1,0 -2,0 M 441.01 238 m -0.5, 0 a 0.5,0.5 0 1,0 1,0 a 0.5,0.5 0 1,0 -1,0  M441.01 238 L441.01 238 453.01 238 M447.01 244 L447.01 244 447.01 232" id="h3052581396" class="r"></path><path d="M 670.7 264 m -1, 0 a 1,1 0 1,0 2,0 a 1,1 0 1,0 -2,0 M 670.7 264 m -0.5, 0 a 0.5,0.5 0 1,0 1,0 a 0.5,0.5 0 1,0 -1,0  M670.7 264 L670.7 264 682.7 264 M 670.7 270 m -1, 0 a 1,1 0 1,0 2,0 a 1,1 0 1,0 -2,0 M 670.7 270 m -0.5, 0 a 0.5,0.5 0 1,0 1,0 a 0.5,0.5 0 1,0 -1,0  M670.7 270 L670.7 270 677.7 264 670.7 258 M 670.7 258 m -1, 0 a 1,1 0 1,0 2,0 a 1,1 0 1,0 -2,0 M 670.7 258 m -0.5, 0 a 0.5,0.5 0 1,0 1,0 a 0.5,0.5 0 1,0 -1,0  M682.7 264 Q 699.28 264, 715.85 263.5 T 749 263 M 761 263 m -1, 0 a 1,1 0 1,0 2,0 a 1,1 0 1,0 -2,0 M 761 263 m -0.5, 0 a 0.5,0.5 0 1,0 1,0 a 0.5,0.5 0 1,0 -1,0  M761 263 L761 263 749 263 M755 269 L755 269 755 257" id="h4011824699" class="r"></path><path d="M 1016 264 m -1, 0 a 1,1 0 1,0 2,0 a 1,1 0 1,0 -2,0 M 1016 264 m -0.5, 0 a 0.5,0.5 0 1,0 1,0 a 0.5,0.5 0 1,0 -1,0  M1016 264 L1016 264 1004 264 M 1016 270 m -1, 0 a 1,1 0 1,0 2,0 a 1,1 0 1,0 -2,0 M 1016 270 m -0.5, 0 a 0.5,0.5 0 1,0 1,0 a 0.5,0.5 0 1,0 -1,0  M1016 270 L1016 270 1009 264 1016 258 M 1016 258 m -1, 0 a 1,1 0 1,0 2,0 a 1,1 0 1,0 -2,0 M 1016 258 m -0.5, 0 a 0.5,0.5 0 1,0 1,0 a 0.5,0.5 0 1,0 -1,0  M1004 264 Q 988.27 264, 972.53 263.5 T 941.05 263 M 929.05 263 m -1, 0 a 1,1 0 1,0 2,0 a 1,1 0 1,0 -2,0 M 929.05 263 m -0.5, 0 a 0.5,0.5 0 1,0 1,0 a 0.5,0.5 0 1,0 -1,0  M929.05 263 L929.05 263 941.05 263 M935.05 269 L935.05 269 935.05 257" id="h2087399304" class="r"></path><path d="M 1016 289 m -1, 0 a 1,1 0 1,0 2,0 a 1,1 0 1,0 -2,0 M 1016 289 m -0.5, 0 a 0.5,0.5 0 1,0 1,0 a 0.5,0.5 0 1,0 -1,0  M1016 289 L1016 289 1004 289 M 1016 295 m -1, 0 a 1,1 0 1,0 2,0 a 1,1 0 1,0 -2,0 M 1016 295 m -0.5, 0 a 0.5,0.5 0 1,0 1,0 a 0.5,0.5 0 1,0 -1,0  M1016 295 L1016 295 1009 289 1016 283 M 1016 283 m -1, 0 a 1,1 0 1,0 2,0 a 1,1 0 1,0 -2,0 M 1016 283 m -0.5, 0 a 0.5,0.5 0 1,0 1,0 a 0.5,0.5 0 1,0 -1,0  M1004 289 C 977.9978633356582 289, 977.3978633356581 367, 1005 367 M 1017 367 m -1, 0 a 1,1 0 1,0 2,0 a 1,1 0 1,0 -2,0 M 1017 367 m -0.5, 0 a 0.5,0.5 0 1,0 1,0 a 0.5,0.5 0 1,0 -1,0  M1017 367 L1017 367 1005 367 M1011 373 L1011 373 1011 361" id="h2916041930" class="r"></path></g><g class="hrs"></g><g class="ts"><svg width="116.01" height="175" x="325" y="181" id="h3889921393" class="t"><rect height="40" width="116.01" class="th"></rect><text x="13" y="25" class="tht">Users</text><rect height="135" width="116.01" class="t-bg" y="40"></rect><text x="13" y="61" class="tf pk">UserID<tspan x="103.01" class="ty">int</tspan></text><path d="M7,14A2,2 0 0,1 5,12A2,2 0 0,1 7,10A2,2 0 0,1 9,12A2,2 0 0,1 7,14M12.65,10C11.83,7.67 9.61,6 7, 6A6, 6 0 0, 0 1, 12A6, 6 0 0, 0 7, 18C9.61, 18 11.83, 16.33 12.65, 14H17V18H21V14H23V10H12.65Z" class="i pk" transform="translate(70.336171875, 48) scale(0.65)"></path><text x="13" y="86" class="tf">Email<tspan x="103.01" class="ty">string</tspan></text><text x="13" y="111" class="tf">Login<tspan x="103.01" class="ty">string</tspan></text><text x="13" y="136" class="tf">Name<tspan x="103.01" class="ty">string</tspan></text><text x="13" y="161" class="tf">Birthday<tspan x="103.01" class="ty">date</tspan></text></svg><svg width="168.05" height="250" x="761" y="206" id="h253636070" class="t"><rect height="40" width="168.05" class="th"></rect><text x="13" y="25" class="tht">Films</text><rect height="210" width="168.05" class="t-bg" y="40"></rect><text x="13" y="61" class="tf pk">FilmID<tspan x="155.05" class="ty">int</tspan></text><path d="M7,14A2,2 0 0,1 5,12A2,2 0 0,1 7,10A2,2 0 0,1 9,12A2,2 0 0,1 7,14M12.65,10C11.83,7.67 9.61,6 7, 6A6, 6 0 0, 0 1, 12A6, 6 0 0, 0 7, 18C9.61, 18 11.83, 16.33 12.65, 14H17V18H21V14H23V10H12.65Z" class="i pk" transform="translate(122.37617187500001, 48) scale(0.65)"></path><text x="13" y="86" class="tf">Name<tspan x="155.05" class="ty">string</tspan></text><text x="13" y="111" class="tf fk">MPA_ID<tspan x="155.05" class="ty">string</tspan></text><text x="13" y="136" class="tf">Decription<tspan x="155.05" class="ty">varchar(200)</tspan></text><text x="13" y="161" class="tf">ReleaseDate<tspan x="155.05" class="ty">date</tspan></text><text x="13" y="186" class="tf">Duration<tspan x="155.05" class="ty">int</tspan></text><text x="13" y="211" class="tf">Rate<tspan x="155.05" class="ty">int</tspan></text><text x="13" y="236" class="tf">Likes<tspan x="155.05" class="ty">int</tspan></text></svg><svg width="139.13" height="100" x="1018" y="415" id="h3819574827" class="t"><rect height="40" width="139.13" class="th"></rect><text x="13" y="25" class="tht">MPA</text><rect height="60" width="139.13" class="t-bg" y="40"></rect><text x="13" y="61" class="tf pk">MPA_ID<tspan x="126.13" class="ty">string</tspan></text><path d="M7,14A2,2 0 0,1 5,12A2,2 0 0,1 7,10A2,2 0 0,1 9,12A2,2 0 0,1 7,14M12.65,10C11.83,7.67 9.61,6 7, 6A6, 6 0 0, 0 1, 12A6, 6 0 0, 0 7, 18C9.61, 18 11.83, 16.33 12.65, 14H17V18H21V14H23V10H12.65Z" class="i pk" transform="translate(76.78625, 48) scale(0.65)"></path><text x="13" y="86" class="tf">Decription<tspan x="126.13" class="ty">string</tspan></text></svg><svg width="124.03" height="100" x="1017" y="310" id="h807582512" class="t"><rect height="40" width="124.03" class="th"></rect><text x="13" y="25" class="tht">Genre</text><rect height="60" width="124.03" class="t-bg" y="40"></rect><text x="13" y="61" class="tf pk">GenreID<tspan x="111.03" class="ty">int</tspan></text><path d="M7,14A2,2 0 0,1 5,12A2,2 0 0,1 7,10A2,2 0 0,1 9,12A2,2 0 0,1 7,14M12.65,10C11.83,7.67 9.61,6 7, 6A6, 6 0 0, 0 1, 12A6, 6 0 0, 0 7, 18C9.61, 18 11.83, 16.33 12.65, 14H17V18H21V14H23V10H12.65Z" class="i pk" transform="translate(78.356171875, 48) scale(0.65)"></path><text x="13" y="86" class="tf">Name<tspan x="111.03" class="ty">string</tspan></text></svg><svg width="150.51" height="125" x="87" y="176" id="h1125438847" class="t"><rect height="40" width="150.51" class="th"></rect><text x="13" y="25" class="tht">FriendshipRequests</text><rect height="85" width="150.51" class="t-bg" y="40"></rect><text x="13" y="61" class="tf fk">Sender<tspan x="137.51" class="ty">int</tspan></text><text x="13" y="86" class="tf fk">Recipient<tspan x="137.51" class="ty">int</tspan></text><text x="13" y="111" class="tf">Proof<tspan x="137.51" class="ty">boolean</tspan></text></svg><svg width="142.7" height="100" x="528" y="182" id="h1651222371" class="t"><rect height="40" width="142.7" class="th"></rect><text x="13" y="25" class="tht">UsersMovieLibrary</text><rect height="60" width="142.7" class="t-bg" y="40"></rect><text x="13" y="61" class="tf fk">UserID<tspan x="129.7" class="ty">int</tspan></text><text x="13" y="86" class="tf fk">FilmID<tspan x="129.7" class="ty">int</tspan></text></svg><svg width="106.13" height="100" x="1016" y="207" id="h527751593" class="t"><rect height="40" width="106.13" class="th"></rect><text x="13" y="25" class="tht">FilmToGenre</text><rect height="60" width="106.13" class="t-bg" y="40"></rect><text x="13" y="61" class="tf fk">FilmID<tspan x="93.13" class="ty">int</tspan></text><text x="13" y="86" class="tf fk">GenreID<tspan x="93.13" class="ty">int</tspan></text></svg></g></g><text class="qdbd-link" x="10" y="20">www.quickdatabasediagrams.com</text></svg>