<svg class="diagram-root" style="background: #f5f6f6" xmlns="http://www.w3.org/2000/svg" xmlns:xlink="http://www.w3.org/1999/xlink"><style>.diagram-root { font-family: "Helvetica Neue", sans-serif; font-size: 12px; } .t { overflow: visible; } .t-bg { y: 40; fill: #fff;   } .th { fill: #005aa0;   } .tht { fill: #fff; font-size: 14px;  } .tf { fill: #323c46; overflow: visible; } .tf.pk { fill: #005aa0; font-weight: bold; } .tf.fk { font-weight: bold; } .ty { fill: #adb1b5; font-weight: normal; text-anchor: end; } .r { fill: transparent; stroke: #c3c3c3; stroke-width: 1; } .l { stroke: 1; } .i { fill: #c2c7ce; stroke: #c2c7ce; } .i.ix { fill: #afb3b6; stroke: #000; } .fa { fill: transparent; overflow: visible; } .fa .bg.hover { fill: #f7f7f7; } .c { cy: 12; r: 4; stroke: #d2d2dc; fill: #d2d2dc; } .hr { fill: transparent; stroke: #323c46; stroke-opacity: 0.035; stroke-width: 13; } .dc { stroke: #fa5a3c; fill: #fa5a3c; } .x { stroke: white; stroke-width: 1; } .hl .th { fill: #1b9bff; } .hl .tht {  } .fhl .bg { fill: #e7f4ff; } .fhls .bg {  } .r.hl { stroke: #1b9bff; } .dim { opacity: 0.25; }</style><g class="drawing-wrapper" transform="translate(-43, -82) scale(1,1)"><g class="rs"><path d="M 662.05 293 m -1, 0 a 1,1 0 1,0 2,0 a 1,1 0 1,0 -2,0 M 662.05 293 m -0.5, 0 a 0.5,0.5 0 1,0 1,0 a 0.5,0.5 0 1,0 -1,0  M662.05 293 L662.05 293 674.05 293 M 662.05 299 m -1, 0 a 1,1 0 1,0 2,0 a 1,1 0 1,0 -2,0 M 662.05 299 m -0.5, 0 a 0.5,0.5 0 1,0 1,0 a 0.5,0.5 0 1,0 -1,0  M662.05 299 L662.05 299 669.05 293 662.05 287 M 662.05 287 m -1, 0 a 1,1 0 1,0 2,0 a 1,1 0 1,0 -2,0 M 662.05 287 m -0.5, 0 a 0.5,0.5 0 1,0 1,0 a 0.5,0.5 0 1,0 -1,0  M674.05 293 Q 689.54 293, 705.03 338.5 T 736 384 M 748 384 m -1, 0 a 1,1 0 1,0 2,0 a 1,1 0 1,0 -2,0 M 748 384 m -0.5, 0 a 0.5,0.5 0 1,0 1,0 a 0.5,0.5 0 1,0 -1,0  M748 384 L748 384 736 384 M742 390 L742 390 742 378" id="h150312143" class="r"></path><path d="M 266 335 m -1, 0 a 1,1 0 1,0 2,0 a 1,1 0 1,0 -2,0 M 266 335 m -0.5, 0 a 0.5,0.5 0 1,0 1,0 a 0.5,0.5 0 1,0 -1,0  M266 335 L266 335 254 335 M 266 341 m -1, 0 a 1,1 0 1,0 2,0 a 1,1 0 1,0 -2,0 M 266 341 m -0.5, 0 a 0.5,0.5 0 1,0 1,0 a 0.5,0.5 0 1,0 -1,0  M266 341 L266 341 259 335 266 329 M 266 329 m -1, 0 a 1,1 0 1,0 2,0 a 1,1 0 1,0 -2,0 M 266 329 m -0.5, 0 a 0.5,0.5 0 1,0 1,0 a 0.5,0.5 0 1,0 -1,0  M254 335 Q 238.76 335, 223.51 289 T 193.01 243 M 181.01 243 m -1, 0 a 1,1 0 1,0 2,0 a 1,1 0 1,0 -2,0 M 181.01 243 m -0.5, 0 a 0.5,0.5 0 1,0 1,0 a 0.5,0.5 0 1,0 -1,0  M181.01 243 L181.01 243 193.01 243 M187.01 249 L187.01 249 187.01 237" id="h1189701116" class="r"></path><path d="M 266 360 m -1, 0 a 1,1 0 1,0 2,0 a 1,1 0 1,0 -2,0 M 266 360 m -0.5, 0 a 0.5,0.5 0 1,0 1,0 a 0.5,0.5 0 1,0 -1,0  M266 360 L266 360 254 360 M 266 366 m -1, 0 a 1,1 0 1,0 2,0 a 1,1 0 1,0 -2,0 M 266 366 m -0.5, 0 a 0.5,0.5 0 1,0 1,0 a 0.5,0.5 0 1,0 -1,0  M266 366 L266 366 259 360 266 354 M 266 354 m -1, 0 a 1,1 0 1,0 2,0 a 1,1 0 1,0 -2,0 M 266 354 m -0.5, 0 a 0.5,0.5 0 1,0 1,0 a 0.5,0.5 0 1,0 -1,0  M254 360 Q 238.76 360, 223.51 301.5 T 193.01 243 M 181.01 243 m -1, 0 a 1,1 0 1,0 2,0 a 1,1 0 1,0 -2,0 M 181.01 243 m -0.5, 0 a 0.5,0.5 0 1,0 1,0 a 0.5,0.5 0 1,0 -1,0  M181.01 243 L181.01 243 193.01 243 M187.01 249 L187.01 249 187.01 237" id="h3478365241" class="r"></path><path d="M 267 208 m -1, 0 a 1,1 0 1,0 2,0 a 1,1 0 1,0 -2,0 M 267 208 m -0.5, 0 a 0.5,0.5 0 1,0 1,0 a 0.5,0.5 0 1,0 -1,0  M267 208 L267 208 255 208 M 267 214 m -1, 0 a 1,1 0 1,0 2,0 a 1,1 0 1,0 -2,0 M 267 214 m -0.5, 0 a 0.5,0.5 0 1,0 1,0 a 0.5,0.5 0 1,0 -1,0  M267 214 L267 214 260 208 267 202 M 267 202 m -1, 0 a 1,1 0 1,0 2,0 a 1,1 0 1,0 -2,0 M 267 202 m -0.5, 0 a 0.5,0.5 0 1,0 1,0 a 0.5,0.5 0 1,0 -1,0  M255 208 Q 239.51 208, 224.01 225.5 T 193.01 243 M 181.01 243 m -1, 0 a 1,1 0 1,0 2,0 a 1,1 0 1,0 -2,0 M 181.01 243 m -0.5, 0 a 0.5,0.5 0 1,0 1,0 a 0.5,0.5 0 1,0 -1,0  M181.01 243 L181.01 243 193.01 243 M187.01 249 L187.01 249 187.01 237" id="h3052581396" class="r"></path><path d="M 409.7 233 m -1, 0 a 1,1 0 1,0 2,0 a 1,1 0 1,0 -2,0 M 409.7 233 m -0.5, 0 a 0.5,0.5 0 1,0 1,0 a 0.5,0.5 0 1,0 -1,0  M409.7 233 L409.7 233 421.7 233 M 409.7 239 m -1, 0 a 1,1 0 1,0 2,0 a 1,1 0 1,0 -2,0 M 409.7 239 m -0.5, 0 a 0.5,0.5 0 1,0 1,0 a 0.5,0.5 0 1,0 -1,0  M409.7 239 L409.7 239 416.7 233 409.7 227 M 409.7 227 m -1, 0 a 1,1 0 1,0 2,0 a 1,1 0 1,0 -2,0 M 409.7 227 m -0.5, 0 a 0.5,0.5 0 1,0 1,0 a 0.5,0.5 0 1,0 -1,0  M421.7 233 Q 436.78 233, 451.85 238 T 482 243 M 494 243 m -1, 0 a 1,1 0 1,0 2,0 a 1,1 0 1,0 -2,0 M 494 243 m -0.5, 0 a 0.5,0.5 0 1,0 1,0 a 0.5,0.5 0 1,0 -1,0  M494 243 L494 243 482 243 M488 249 L488 249 488 237" id="h4011824699" class="r"></path><path d="M 750 169 m -1, 0 a 1,1 0 1,0 2,0 a 1,1 0 1,0 -2,0 M 750 169 m -0.5, 0 a 0.5,0.5 0 1,0 1,0 a 0.5,0.5 0 1,0 -1,0  M750 169 L750 169 738 169 M 750 175 m -1, 0 a 1,1 0 1,0 2,0 a 1,1 0 1,0 -2,0 M 750 175 m -0.5, 0 a 0.5,0.5 0 1,0 1,0 a 0.5,0.5 0 1,0 -1,0  M750 175 L750 175 743 169 750 163 M 750 163 m -1, 0 a 1,1 0 1,0 2,0 a 1,1 0 1,0 -2,0 M 750 163 m -0.5, 0 a 0.5,0.5 0 1,0 1,0 a 0.5,0.5 0 1,0 -1,0  M738 169 Q 722.02 169, 706.03 206 T 674.05 243 M 662.05 243 m -1, 0 a 1,1 0 1,0 2,0 a 1,1 0 1,0 -2,0 M 662.05 243 m -0.5, 0 a 0.5,0.5 0 1,0 1,0 a 0.5,0.5 0 1,0 -1,0  M662.05 243 L662.05 243 674.05 243 M668.05 249 L668.05 249 668.05 237" id="h2087399304" class="r"></path><path d="M 750 194 m -1, 0 a 1,1 0 1,0 2,0 a 1,1 0 1,0 -2,0 M 750 194 m -0.5, 0 a 0.5,0.5 0 1,0 1,0 a 0.5,0.5 0 1,0 -1,0  M750 194 L750 194 738 194 M 750 200 m -1, 0 a 1,1 0 1,0 2,0 a 1,1 0 1,0 -2,0 M 750 200 m -0.5, 0 a 0.5,0.5 0 1,0 1,0 a 0.5,0.5 0 1,0 -1,0  M750 200 L750 200 743 194 750 188 M 750 188 m -1, 0 a 1,1 0 1,0 2,0 a 1,1 0 1,0 -2,0 M 750 188 m -0.5, 0 a 0.5,0.5 0 1,0 1,0 a 0.5,0.5 0 1,0 -1,0  M738 194 C 708.7313253740705 194, 709.3313253740705 277, 737 277 M 749 277 m -1, 0 a 1,1 0 1,0 2,0 a 1,1 0 1,0 -2,0 M 749 277 m -0.5, 0 a 0.5,0.5 0 1,0 1,0 a 0.5,0.5 0 1,0 -1,0  M749 277 L749 277 737 277 M743 283 L743 283 743 271" id="h2916041930" class="r"></path></g><g class="hrs"></g><g class="ts"><svg width="116.01" height="175" x="65" y="186" id="h3889921393" class="t"><rect height="40" width="116.01" class="th"></rect><text x="13" y="25" class="tht">Users</text><rect height="135" width="116.01" class="t-bg" y="40"></rect><text x="13" y="61" class="tf pk">UserID<tspan x="103.01" class="ty">int</tspan></text><path d="M7,14A2,2 0 0,1 5,12A2,2 0 0,1 7,10A2,2 0 0,1 9,12A2,2 0 0,1 7,14M12.65,10C11.83,7.67 9.61,6 7, 6A6, 6 0 0, 0 1, 12A6, 6 0 0, 0 7, 18C9.61, 18 11.83, 16.33 12.65, 14H17V18H21V14H23V10H12.65Z" class="i pk" transform="translate(70.336171875, 48) scale(0.65)"></path><text x="13" y="86" class="tf">Email<tspan x="103.01" class="ty">string</tspan></text><text x="13" y="111" class="tf">Login<tspan x="103.01" class="ty">string</tspan></text><text x="13" y="136" class="tf">Name<tspan x="103.01" class="ty">string</tspan></text><text x="13" y="161" class="tf">Birthday<tspan x="103.01" class="ty">date</tspan></text></svg><svg width="150.51" height="125" x="266" y="278" id="h1125438847" class="t"><rect height="40" width="150.51" class="th"></rect><text x="13" y="25" class="tht">FriendshipRequests</text><rect height="85" width="150.51" class="t-bg" y="40"></rect><text x="13" y="61" class="tf fk">Sender<tspan x="137.51" class="ty">int</tspan></text><text x="13" y="86" class="tf fk">Recipient<tspan x="137.51" class="ty">int</tspan></text><text x="13" y="111" class="tf">Proof<tspan x="137.51" class="ty">boolean</tspan></text></svg><svg width="142.7" height="100" x="267" y="151" id="h1651222371" class="t"><rect height="40" width="142.7" class="th"></rect><text x="13" y="25" class="tht">UsersMovieLibrary</text><rect height="60" width="142.7" class="t-bg" y="40"></rect><text x="13" y="61" class="tf fk">UserID<tspan x="129.7" class="ty">int</tspan></text><text x="13" y="86" class="tf fk">FilmID<tspan x="129.7" class="ty">int</tspan></text></svg><svg width="168.05" height="250" x="494" y="186" id="h253636070" class="t"><rect height="40" width="168.05" class="th"></rect><text x="13" y="25" class="tht">Films</text><rect height="210" width="168.05" class="t-bg" y="40"></rect><text x="13" y="61" class="tf pk">FilmID<tspan x="155.05" class="ty">int</tspan></text><path d="M7,14A2,2 0 0,1 5,12A2,2 0 0,1 7,10A2,2 0 0,1 9,12A2,2 0 0,1 7,14M12.65,10C11.83,7.67 9.61,6 7, 6A6, 6 0 0, 0 1, 12A6, 6 0 0, 0 7, 18C9.61, 18 11.83, 16.33 12.65, 14H17V18H21V14H23V10H12.65Z" class="i pk" transform="translate(122.37617187500001, 48) scale(0.65)"></path><text x="13" y="86" class="tf">Name<tspan x="155.05" class="ty">string</tspan></text><text x="13" y="111" class="tf fk">MPA_ID<tspan x="155.05" class="ty">string</tspan></text><text x="13" y="136" class="tf">Decription<tspan x="155.05" class="ty">varchar(200)</tspan></text><text x="13" y="161" class="tf">ReleaseDate<tspan x="155.05" class="ty">date</tspan></text><text x="13" y="186" class="tf">Duration<tspan x="155.05" class="ty">int</tspan></text><text x="13" y="211" class="tf">Rate<tspan x="155.05" class="ty">int</tspan></text><text x="13" y="236" class="tf">Likes<tspan x="155.05" class="ty">int</tspan></text></svg><svg width="139.13" height="100" x="748" y="327" id="h3819574827" class="t"><rect height="40" width="139.13" class="th"></rect><text x="13" y="25" class="tht">MPA</text><rect height="60" width="139.13" class="t-bg" y="40"></rect><text x="13" y="61" class="tf pk">MPA_ID<tspan x="126.13" class="ty">string</tspan></text><path d="M7,14A2,2 0 0,1 5,12A2,2 0 0,1 7,10A2,2 0 0,1 9,12A2,2 0 0,1 7,14M12.65,10C11.83,7.67 9.61,6 7, 6A6, 6 0 0, 0 1, 12A6, 6 0 0, 0 7, 18C9.61, 18 11.83, 16.33 12.65, 14H17V18H21V14H23V10H12.65Z" class="i pk" transform="translate(76.78625, 48) scale(0.65)"></path><text x="13" y="86" class="tf">Decription<tspan x="126.13" class="ty">string</tspan></text></svg><svg width="124.03" height="100" x="749" y="220" id="h807582512" class="t"><rect height="40" width="124.03" class="th"></rect><text x="13" y="25" class="tht">Genre</text><rect height="60" width="124.03" class="t-bg" y="40"></rect><text x="13" y="61" class="tf pk">GenreID<tspan x="111.03" class="ty">int</tspan></text><path d="M7,14A2,2 0 0,1 5,12A2,2 0 0,1 7,10A2,2 0 0,1 9,12A2,2 0 0,1 7,14M12.65,10C11.83,7.67 9.61,6 7, 6A6, 6 0 0, 0 1, 12A6, 6 0 0, 0 7, 18C9.61, 18 11.83, 16.33 12.65, 14H17V18H21V14H23V10H12.65Z" class="i pk" transform="translate(78.356171875, 48) scale(0.65)"></path><text x="13" y="86" class="tf">Name<tspan x="111.03" class="ty">string</tspan></text></svg><svg width="106.13" height="100" x="750" y="112" id="h527751593" class="t"><rect height="40" width="106.13" class="th"></rect><text x="13" y="25" class="tht">FilmToGenre</text><rect height="60" width="106.13" class="t-bg" y="40"></rect><text x="13" y="61" class="tf fk">FilmID<tspan x="93.13" class="ty">int</tspan></text><text x="13" y="86" class="tf fk">GenreID<tspan x="93.13" class="ty">int</tspan></text></svg></g></g><text class="qdbd-link" x="10" y="20">www.quickdatabasediagrams.com</text></svg>