<svg class="diagram-root" style="background: #f5f6f6" xmlns="http://www.w3.org/2000/svg" xmlns:xlink="http://www.w3.org/1999/xlink"><style>.diagram-root { font-family: "Helvetica Neue", sans-serif; font-size: 12px; } .t { overflow: visible; } .t-bg { y: 40; fill: #fff;   } .th { fill: #005aa0;   } .tht { fill: #fff; font-size: 14px;  } .tf { fill: #323c46; overflow: visible; } .tf.pk { fill: #005aa0; font-weight: bold; } .tf.fk { font-weight: bold; } .ty { fill: #adb1b5; font-weight: normal; text-anchor: end; } .r { fill: transparent; stroke: #c3c3c3; stroke-width: 1; } .l { stroke: 1; } .i { fill: #c2c7ce; stroke: #c2c7ce; } .i.ix { fill: #afb3b6; stroke: #000; } .fa { fill: transparent; overflow: visible; } .fa .bg.hover { fill: #f7f7f7; } .c { cy: 12; r: 4; stroke: #d2d2dc; fill: #d2d2dc; } .hr { fill: transparent; stroke: #323c46; stroke-opacity: 0.035; stroke-width: 13; } .dc { stroke: #fa5a3c; fill: #fa5a3c; } .x { stroke: white; stroke-width: 1; } .hl .th { fill: #1b9bff; } .hl .tht {  } .fhl .bg { fill: #e7f4ff; } .fhls .bg {  } .r.hl { stroke: #1b9bff; } .dim { opacity: 0.25; }</style><g class="drawing-wrapper" transform="translate(-38.00333333333333, -53.33333333333326) scale(1,1)"><g class="rs"><path d="M 318.33 319.23 m -1, 0 a 1,1 0 1,0 2,0 a 1,1 0 1,0 -2,0 M 318.33 319.23 m -0.5, 0 a 0.5,0.5 0 1,0 1,0 a 0.5,0.5 0 1,0 -1,0  M318.33 319.23 L318.33 319.23 306.33 319.23 M 318.33 325.23 m -1, 0 a 1,1 0 1,0 2,0 a 1,1 0 1,0 -2,0 M 318.33 325.23 m -0.5, 0 a 0.5,0.5 0 1,0 1,0 a 0.5,0.5 0 1,0 -1,0  M318.33 325.23 L318.33 325.23 311.33 319.23 318.33 313.23 M 318.33 313.23 m -1, 0 a 1,1 0 1,0 2,0 a 1,1 0 1,0 -2,0 M 318.33 313.23 m -0.5, 0 a 0.5,0.5 0 1,0 1,0 a 0.5,0.5 0 1,0 -1,0  M306.33 319.23 Q 289.99 319.23, 273.64 295.9 T 240.94 272.56 M 228.94 272.56 m -1, 0 a 1,1 0 1,0 2,0 a 1,1 0 1,0 -2,0 M 228.94 272.56 m -0.5, 0 a 0.5,0.5 0 1,0 1,0 a 0.5,0.5 0 1,0 -1,0  M228.94 272.56 L228.94 272.56 240.94 272.56 M234.94 278.56 L234.94 278.56 234.94 266.56" id="h3409216348" class="r"></path><path d="M 318.33 344.23 m -1, 0 a 1,1 0 1,0 2,0 a 1,1 0 1,0 -2,0 M 318.33 344.23 m -0.5, 0 a 0.5,0.5 0 1,0 1,0 a 0.5,0.5 0 1,0 -1,0  M318.33 344.23 L318.33 344.23 306.33 344.23 M 318.33 350.23 m -1, 0 a 1,1 0 1,0 2,0 a 1,1 0 1,0 -2,0 M 318.33 350.23 m -0.5, 0 a 0.5,0.5 0 1,0 1,0 a 0.5,0.5 0 1,0 -1,0  M318.33 350.23 L318.33 350.23 311.33 344.23 318.33 338.23 M 318.33 338.23 m -1, 0 a 1,1 0 1,0 2,0 a 1,1 0 1,0 -2,0 M 318.33 338.23 m -0.5, 0 a 0.5,0.5 0 1,0 1,0 a 0.5,0.5 0 1,0 -1,0  M306.33 344.23 Q 289.99 344.23, 273.64 308.4 T 240.94 272.56 M 228.94 272.56 m -1, 0 a 1,1 0 1,0 2,0 a 1,1 0 1,0 -2,0 M 228.94 272.56 m -0.5, 0 a 0.5,0.5 0 1,0 1,0 a 0.5,0.5 0 1,0 -1,0  M228.94 272.56 L228.94 272.56 240.94 272.56 M234.94 278.56 L234.94 278.56 234.94 266.56" id="h3196631091" class="r"></path><path d="M 776.71 253.67 m -1, 0 a 1,1 0 1,0 2,0 a 1,1 0 1,0 -2,0 M 776.71 253.67 m -0.5, 0 a 0.5,0.5 0 1,0 1,0 a 0.5,0.5 0 1,0 -1,0  M776.71 253.67 L776.71 253.67 788.71 253.67 M 776.71 259.66999999999996 m -1, 0 a 1,1 0 1,0 2,0 a 1,1 0 1,0 -2,0 M 776.71 259.66999999999996 m -0.5, 0 a 0.5,0.5 0 1,0 1,0 a 0.5,0.5 0 1,0 -1,0  M776.71 259.66999999999996 L776.71 259.66999999999996 783.71 253.67 776.71 247.67 M 776.71 247.67 m -1, 0 a 1,1 0 1,0 2,0 a 1,1 0 1,0 -2,0 M 776.71 247.67 m -0.5, 0 a 0.5,0.5 0 1,0 1,0 a 0.5,0.5 0 1,0 -1,0  M788.71 253.67 Q 805.62 253.67, 822.52 311.45 T 856.33 369.22 M 868.33 369.22 m -1, 0 a 1,1 0 1,0 2,0 a 1,1 0 1,0 -2,0 M 868.33 369.22 m -0.5, 0 a 0.5,0.5 0 1,0 1,0 a 0.5,0.5 0 1,0 -1,0  M868.33 369.22 L868.33 369.22 856.33 369.22 M862.33 375.22 L862.33 375.22 862.33 363.22" id="h1290994294" class="r"></path><path d="M 865.56 140.32999999999998 m -1, 0 a 1,1 0 1,0 2,0 a 1,1 0 1,0 -2,0 M 865.56 140.32999999999998 m -0.5, 0 a 0.5,0.5 0 1,0 1,0 a 0.5,0.5 0 1,0 -1,0  M865.56 140.32999999999998 L865.56 140.32999999999998 853.56 140.32999999999998 M 865.56 146.32999999999998 m -1, 0 a 1,1 0 1,0 2,0 a 1,1 0 1,0 -2,0 M 865.56 146.32999999999998 m -0.5, 0 a 0.5,0.5 0 1,0 1,0 a 0.5,0.5 0 1,0 -1,0  M865.56 146.32999999999998 L865.56 146.32999999999998 858.56 140.32999999999998 865.56 134.32999999999998 M 865.56 134.32999999999998 m -1, 0 a 1,1 0 1,0 2,0 a 1,1 0 1,0 -2,0 M 865.56 134.32999999999998 m -0.5, 0 a 0.5,0.5 0 1,0 1,0 a 0.5,0.5 0 1,0 -1,0  M853.56 140.32999999999998 Q 837.35 140.32999999999998, 821.14 172 T 788.71 203.67 M 776.71 203.67 m -1, 0 a 1,1 0 1,0 2,0 a 1,1 0 1,0 -2,0 M 776.71 203.67 m -0.5, 0 a 0.5,0.5 0 1,0 1,0 a 0.5,0.5 0 1,0 -1,0  M776.71 203.67 L776.71 203.67 788.71 203.67 M782.71 209.67 L782.71 209.67 782.71 197.67" id="h2610088408" class="r"></path><path d="M 865.56 165.32999999999998 m -1, 0 a 1,1 0 1,0 2,0 a 1,1 0 1,0 -2,0 M 865.56 165.32999999999998 m -0.5, 0 a 0.5,0.5 0 1,0 1,0 a 0.5,0.5 0 1,0 -1,0  M865.56 165.32999999999998 L865.56 165.32999999999998 853.56 165.32999999999998 M 865.56 171.32999999999998 m -1, 0 a 1,1 0 1,0 2,0 a 1,1 0 1,0 -2,0 M 865.56 171.32999999999998 m -0.5, 0 a 0.5,0.5 0 1,0 1,0 a 0.5,0.5 0 1,0 -1,0  M865.56 171.32999999999998 L865.56 171.32999999999998 858.56 165.32999999999998 865.56 159.32999999999998 M 865.56 159.32999999999998 m -1, 0 a 1,1 0 1,0 2,0 a 1,1 0 1,0 -2,0 M 865.56 159.32999999999998 m -0.5, 0 a 0.5,0.5 0 1,0 1,0 a 0.5,0.5 0 1,0 -1,0  M853.56 165.32999999999998 C 823.5867341572683 165.32999999999998, 823.9227341572683 252.56, 853 252.56 M 865 252.56 m -1, 0 a 1,1 0 1,0 2,0 a 1,1 0 1,0 -2,0 M 865 252.56 m -0.5, 0 a 0.5,0.5 0 1,0 1,0 a 0.5,0.5 0 1,0 -1,0  M865 252.56 L865 252.56 853 252.56 M859 258.56 L859 258.56 859 246.56" id="h4221933268" class="r"></path><path d="M 319.44 202.56 m -1, 0 a 1,1 0 1,0 2,0 a 1,1 0 1,0 -2,0 M 319.44 202.56 m -0.5, 0 a 0.5,0.5 0 1,0 1,0 a 0.5,0.5 0 1,0 -1,0  M319.44 202.56 L319.44 202.56 307.44 202.56 M 319.44 208.56 m -1, 0 a 1,1 0 1,0 2,0 a 1,1 0 1,0 -2,0 M 319.44 208.56 m -0.5, 0 a 0.5,0.5 0 1,0 1,0 a 0.5,0.5 0 1,0 -1,0  M319.44 208.56 L319.44 208.56 312.44 202.56 319.44 196.56 M 319.44 196.56 m -1, 0 a 1,1 0 1,0 2,0 a 1,1 0 1,0 -2,0 M 319.44 196.56 m -0.5, 0 a 0.5,0.5 0 1,0 1,0 a 0.5,0.5 0 1,0 -1,0  M307.44 202.56 Q 290.82 202.56, 274.19 237.56 T 240.94 272.56 M 228.94 272.56 m -1, 0 a 1,1 0 1,0 2,0 a 1,1 0 1,0 -2,0 M 228.94 272.56 m -0.5, 0 a 0.5,0.5 0 1,0 1,0 a 0.5,0.5 0 1,0 -1,0  M228.94 272.56 L228.94 272.56 240.94 272.56 M234.94 278.56 L234.94 278.56 234.94 266.56" id="h3638314014" class="r"></path><path d="M 462.15 227.56 m -1, 0 a 1,1 0 1,0 2,0 a 1,1 0 1,0 -2,0 M 462.15 227.56 m -0.5, 0 a 0.5,0.5 0 1,0 1,0 a 0.5,0.5 0 1,0 -1,0  M462.15 227.56 L462.15 227.56 474.15 227.56 M 462.15 233.56 m -1, 0 a 1,1 0 1,0 2,0 a 1,1 0 1,0 -2,0 M 462.15 233.56 m -0.5, 0 a 0.5,0.5 0 1,0 1,0 a 0.5,0.5 0 1,0 -1,0  M462.15 233.56 L462.15 233.56 469.15 227.56 462.15 221.56 M 462.15 221.56 m -1, 0 a 1,1 0 1,0 2,0 a 1,1 0 1,0 -2,0 M 462.15 221.56 m -0.5, 0 a 0.5,0.5 0 1,0 1,0 a 0.5,0.5 0 1,0 -1,0  M474.15 227.56 Q 489.28 227.56, 504.41 215.62 T 534.67 203.67 M 546.67 203.67 m -1, 0 a 1,1 0 1,0 2,0 a 1,1 0 1,0 -2,0 M 546.67 203.67 m -0.5, 0 a 0.5,0.5 0 1,0 1,0 a 0.5,0.5 0 1,0 -1,0  M546.67 203.67 L546.67 203.67 534.67 203.67 M540.67 209.67 L540.67 209.67 540.67 197.67" id="h3312402190" class="r"></path></g><g class="hrs"></g><g class="ts"><svg width="168.94" height="175" x="60" y="215.56" id="h1765850068" class="t"><rect height="40" width="168.94" class="th"></rect><text x="13" y="25" class="tht">USERS</text><rect height="135" width="168.94" class="t-bg" y="40"></rect><text x="13" y="61" class="tf pk">USER_ID<tspan x="155.94" class="ty">int</tspan></text><path d="M7,14A2,2 0 0,1 5,12A2,2 0 0,1 7,10A2,2 0 0,1 9,12A2,2 0 0,1 7,14M12.65,10C11.83,7.67 9.61,6 7, 6A6, 6 0 0, 0 1, 12A6, 6 0 0, 0 7, 18C9.61, 18 11.83, 16.33 12.65, 14H17V18H21V14H23V10H12.65Z" class="i pk" transform="translate(123.266171875, 48) scale(0.65)"></path><text x="13" y="86" class="tf">USER_EMAIL<tspan x="155.94" class="ty">string</tspan></text><text x="13" y="111" class="tf">USER_LOGIN<tspan x="155.94" class="ty">string</tspan></text><text x="13" y="136" class="tf">USER_NAME<tspan x="155.94" class="ty">string</tspan></text><text x="13" y="161" class="tf">USER_BIRTHDAY<tspan x="155.94" class="ty">date</tspan></text></svg><svg width="195.59" height="125" x="318.33" y="262.23" id="h2171115222" class="t"><rect height="40" width="195.59" class="th"></rect><text x="13" y="25" class="tht">FRIENDSHIP_REQUESTS</text><rect height="85" width="195.59" class="t-bg" y="40"></rect><text x="13" y="61" class="tf fk">SENDER_ID<tspan x="182.59" class="ty">int</tspan></text><text x="13" y="86" class="tf fk">RECIPIENT_ID<tspan x="182.59" class="ty">int</tspan></text><text x="13" y="111" class="tf">PROOF<tspan x="182.59" class="ty">boolean</tspan></text></svg><svg width="230.04" height="250" x="546.67" y="146.67" id="h2148993683" class="t"><rect height="40" width="230.04" class="th"></rect><text x="13" y="25" class="tht">FILMS</text><rect height="210" width="230.04" class="t-bg" y="40"></rect><text x="13" y="61" class="tf pk">FILM_ID<tspan x="217.04" class="ty">int</tspan></text><path d="M7,14A2,2 0 0,1 5,12A2,2 0 0,1 7,10A2,2 0 0,1 9,12A2,2 0 0,1 7,14M12.65,10C11.83,7.67 9.61,6 7, 6A6, 6 0 0, 0 1, 12A6, 6 0 0, 0 7, 18C9.61, 18 11.83, 16.33 12.65, 14H17V18H21V14H23V10H12.65Z" class="i pk" transform="translate(184.366171875, 48) scale(0.65)"></path><text x="13" y="86" class="tf">FILM_NAME<tspan x="217.04" class="ty">string</tspan></text><text x="13" y="111" class="tf fk">MPA_ID<tspan x="217.04" class="ty">int</tspan></text><text x="13" y="136" class="tf">FILM_DESCRIPTION<tspan x="217.04" class="ty">varchar(200)</tspan></text><text x="13" y="161" class="tf">FILM_RELEASE_DATE<tspan x="217.04" class="ty">date</tspan></text><text x="13" y="186" class="tf">FILM_DURATION<tspan x="217.04" class="ty">int</tspan></text><text x="13" y="211" class="tf">FILM_RATE<tspan x="217.04" class="ty">int</tspan></text><text x="13" y="236" class="tf">FILM_RATE_AND_LIKES<tspan x="217.04" class="ty">int</tspan></text></svg><svg width="141.8" height="100" x="868.33" y="312.22" id="h3819574827" class="t"><rect height="40" width="141.8" class="th"></rect><text x="13" y="25" class="tht">MPA</text><rect height="60" width="141.8" class="t-bg" y="40"></rect><text x="13" y="61" class="tf pk">MPA_ID<tspan x="128.8" class="ty">int</tspan></text><path d="M7,14A2,2 0 0,1 5,12A2,2 0 0,1 7,10A2,2 0 0,1 9,12A2,2 0 0,1 7,14M12.65,10C11.83,7.67 9.61,6 7, 6A6, 6 0 0, 0 1, 12A6, 6 0 0, 0 7, 18C9.61, 18 11.83, 16.33 12.65, 14H17V18H21V14H23V10H12.65Z" class="i pk" transform="translate(96.12617187500001, 48) scale(0.65)"></path><text x="13" y="86" class="tf">MPA_NAME<tspan x="128.8" class="ty">string</tspan></text></svg><svg width="159.36" height="100" x="865" y="195.56" id="h17663445" class="t"><rect height="40" width="159.36" class="th"></rect><text x="13" y="25" class="tht">GENRE</text><rect height="60" width="159.36" class="t-bg" y="40"></rect><text x="13" y="61" class="tf pk">GENRE_ID<tspan x="146.36" class="ty">int</tspan></text><path d="M7,14A2,2 0 0,1 5,12A2,2 0 0,1 7,10A2,2 0 0,1 9,12A2,2 0 0,1 7,14M12.65,10C11.83,7.67 9.61,6 7, 6A6, 6 0 0, 0 1, 12A6, 6 0 0, 0 7, 18C9.61, 18 11.83, 16.33 12.65, 14H17V18H21V14H23V10H12.65Z" class="i pk" transform="translate(113.68617187500001, 48) scale(0.65)"></path><text x="13" y="86" class="tf">GENRE_NAME<tspan x="146.36" class="ty">string</tspan></text></svg><svg width="142.44" height="100" x="865.56" y="83.33" id="h2813138419" class="t"><rect height="40" width="142.44" class="th"></rect><text x="13" y="25" class="tht">FILM_TO_GENRE</text><rect height="60" width="142.44" class="t-bg" y="40"></rect><text x="13" y="61" class="tf fk">FILM_ID<tspan x="129.44" class="ty">int</tspan></text><text x="13" y="86" class="tf fk">GENRE_ID<tspan x="129.44" class="ty">int</tspan></text></svg><svg width="142.71" height="100" x="319.44" y="145.56" id="h748817585" class="t"><rect height="40" width="142.71" class="th"></rect><text x="13" y="25" class="tht">USER_LIKE_FILM</text><rect height="60" width="142.71" class="t-bg" y="40"></rect><text x="13" y="61" class="tf fk">USER_ID<tspan x="129.71" class="ty">int</tspan></text><text x="13" y="86" class="tf fk">FILM_ID<tspan x="129.71" class="ty">int</tspan></text></svg></g></g><text class="qdbd-link" x="10" y="20">www.quickdatabasediagrams.com</text></svg>